<svg width="62" height="55" viewBox="0 0 62 55" fill="none" xmlns="http://www.w3.org/2000/svg">
<path d="M33.6111 39.7222H27.5C25.8194 39.7222 24.4444 38.3472 24.4444 36.6667H3.08611V48.8889C3.08611 52.25 5.83611 55 9.19722 55H51.9444C55.3056 55 58.0556 52.25 58.0556 48.8889V36.6667H36.6667C36.6667 38.3472 35.2917 39.7222 33.6111 39.7222ZM55 12.2222H42.7778C42.7778 5.46944 37.3083 0 30.5556 0C23.8028 0 18.3333 5.46944 18.3333 12.2222H6.11111C2.75 12.2222 0 14.9722 0 18.3333V27.5C0 30.8917 2.71944 33.6111 6.11111 33.6111H24.4444V30.5556C24.4444 28.875 25.8194 27.5 27.5 27.5H33.6111C35.2917 27.5 36.6667 28.875 36.6667 30.5556V33.6111H55C58.3611 33.6111 61.1111 30.8611 61.1111 27.5V18.3333C61.1111 14.9722 58.3611 12.2222 55 12.2222ZM24.4444 12.2222C24.4444 8.86111 27.1944 6.11111 30.5556 6.11111C33.9167 6.11111 36.6667 8.86111 36.6667 12.2222H24.4139H24.4444Z" fill="#0F5499"/>
</svg>
