<svg width="75" height="47" viewBox="0 0 75 47" fill="none" xmlns="http://www.w3.org/2000/svg">
<path d="M63.9806 30.4226C63.9757 31.149 63.685 31.8443 63.1713 32.358C62.6576 32.8716 61.9623 33.1624 61.2359 33.1673H50.1697C49.4431 33.1632 48.7473 32.8727 48.2335 32.3589C47.7196 31.845 47.4291 31.1493 47.425 30.4226C47.4299 29.6962 47.7207 29.0009 48.2344 28.4872C48.748 27.9735 49.4433 27.6828 50.1697 27.6779H61.2359C61.9618 27.6844 62.6562 27.9757 63.1695 28.489C63.6828 29.0023 63.9741 29.6967 63.9806 30.4226ZM25.38 30.4226C25.3759 31.1493 25.0855 31.845 24.5716 32.3589C24.0578 32.8727 23.362 33.1632 22.6353 33.1673H11.5692C10.8425 33.1632 10.1467 32.8727 9.63289 32.3589C9.11904 31.845 8.82855 31.1493 8.82446 30.4226C8.82936 29.6962 9.12011 29.0009 9.63378 28.4872C10.1475 27.9735 10.8427 27.6828 11.5692 27.6779H22.6353C23.3612 27.6836 24.0557 27.9747 24.5687 28.4883C25.0817 29.0019 25.372 29.6967 25.3769 30.4226H25.38ZM19.6411 4.94983H55.21L59.5735 16.0597C59.5049 16.0597 59.4362 16.0472 59.3583 16.0472H15.2745L19.6411 4.94983ZM74.7848 13.3898C74.6043 12.3064 74.0016 11.3388 73.1088 10.6992C72.216 10.0595 71.1059 9.80003 70.0221 9.97764L70.047 9.97452L63.2383 11.0849C63.1385 11.1037 63.0404 11.1308 62.9451 11.166L62.9607 11.1597L58.5754 0H16.2632L11.8779 11.1597C11.7894 11.1292 11.6987 11.1052 11.6066 11.088L4.79161 9.97452C3.7146 9.80539 2.61426 10.0664 1.72795 10.7012C0.841638 11.3361 0.240381 12.2938 0.0538709 13.368L0.050752 13.3929C-0.11921 14.4701 0.14146 15.5708 0.776433 16.4573C1.41141 17.3438 2.36969 17.9449 3.44421 18.1307L3.46916 18.1338L7.43339 18.7857C4.91682 21.2012 3.45902 24.5149 3.37871 28.0023V47H17.1022V39.8263H55.8681V47H69.5917V36.8695C69.6478 36.6325 69.679 36.3611 69.679 36.0804V28.0147C69.6031 24.6526 68.2505 21.4454 65.8957 19.0445L65.8988 19.0476L71.4069 18.1431C72.4895 17.962 73.4561 17.3589 74.0946 16.466C74.7331 15.5732 74.9914 14.4635 74.8128 13.3804L74.816 13.4054L74.7848 13.3898Z" fill="#0F5499"/>
</svg>
