<svg width="47" height="54" viewBox="0 0 47 54" fill="none" xmlns="http://www.w3.org/2000/svg">
<path d="M23.4777 23.4329C26.7693 23.4329 29.5326 25.6632 30.3132 28.6789C31.2946 32.46 31.1619 36.6038 35.4759 38.7555C39.3051 40.0585 40.7537 41.6961 40.7537 46.0864C40.7537 49.5904 37.7556 53.3151 33.89 53.78C29.5678 54.4291 26.2035 53.5804 23.4765 52.0262C20.7496 53.5804 17.3841 54.4303 13.0678 53.78C9.19983 53.3151 6.20292 49.5775 6.20292 46.0864C6.20292 41.79 7.74892 39.9716 11.5711 38.7261C16.2748 36.3232 15.6433 32.1113 16.6927 28.4934C17.1241 27.0296 18.0186 25.745 19.242 24.8326C20.4653 23.9202 21.9516 23.429 23.4777 23.4329ZM45.0266 20.8222C43.8609 19.8091 39.1032 23.7639 37.6065 25.7196C36.6968 26.7632 36.1309 28.1976 36.1309 29.78C36.1309 32.9624 38.4083 35.5426 41.2103 35.5426C43.3421 35.5426 45.1663 34.06 45.9211 31.9517C47.3873 28.1601 47.4683 22.9422 45.0266 20.8222ZM1.92648 20.8222C-0.511661 22.9422 -0.433011 28.1601 1.03551 31.9517C1.79031 34.06 3.61335 35.5426 5.74394 35.5426C8.54833 35.5426 10.8233 32.9624 10.8233 29.78C10.8233 28.1976 10.2587 26.7632 9.34892 25.7196C7.85105 23.7639 3.09449 19.8091 1.92648 20.8222ZM29.7404 0.0362892C41.5824 2.04597 40.7513 21.9902 31.2699 20.3831C28.5348 19.9183 26.504 17.4273 26.1952 14.4515C25.8818 11.4253 25.1763 -0.736123 29.7404 0.0362892ZM17.2151 0.0362892C21.7803 -0.737297 21.0736 11.4241 20.7602 14.4503C20.4515 17.4273 18.423 19.9171 15.6879 20.382C6.2041 21.9913 5.37417 2.04597 17.2151 0.0362892Z" fill="#0F5499"/>
</svg>
