<svg width="51" height="51" viewBox="0 0 51 51" fill="none" xmlns="http://www.w3.org/2000/svg">
<path d="M51 14.3438C51 16.2695 50.4189 18.8345 49.2568 22.0386C48.0947 25.2427 46.5342 28.3389 44.5752 31.3271C43.4131 33.1533 42.4917 34.5894 41.811 35.6353C41.1304 36.6812 40.2422 37.9927 39.1465 39.5698C38.0508 41.147 37.1211 42.4004 36.3574 43.3301C35.5938 44.2598 34.7056 45.2725 33.6929 46.3682C32.6802 47.4639 31.7588 48.3105 30.9287 48.9082C30.0986 49.5059 29.2104 50.0039 28.2642 50.4023C27.3179 50.8008 26.3965 51 25.5 51C24.6035 51 23.6821 50.7925 22.7358 50.3774C21.7896 49.9624 20.9014 49.4561 20.0713 48.8584C19.2412 48.2607 18.3115 47.4058 17.2822 46.2935C16.2529 45.1812 15.3564 44.1602 14.5928 43.2305C13.8291 42.3008 12.8994 41.0474 11.8037 39.4702C10.708 37.8931 9.81982 36.5898 9.13916 35.5605C8.4585 34.5312 7.55371 33.1201 6.4248 31.3271C4.36621 28.1729 2.78076 25.0435 1.66846 21.939C0.556152 18.8345 0 16.3027 0 14.3438C0 10.3926 1.40283 7.01416 4.2085 4.2085C7.01416 1.40283 10.3926 0 14.3438 0C16.5684 0 18.6436 0.473145 20.5693 1.41943C22.4951 2.36572 24.1387 3.66895 25.5 5.3291C26.8281 3.66895 28.4634 2.36572 30.4058 1.41943C32.3481 0.473145 34.4316 0 36.6562 0C40.6074 0 43.9858 1.40283 46.7915 4.2085C49.5972 7.01416 51 10.3926 51 14.3438ZM36.6562 6.375C35.2949 6.375 33.8838 6.84814 32.4229 7.79443C30.9619 8.74072 29.7168 9.86133 28.6875 11.1562C28.5879 11.2891 28.397 11.5879 28.1147 12.0527C27.8325 12.5176 27.6001 12.8911 27.4175 13.1733C27.2349 13.4556 26.9609 13.7212 26.5957 13.9702C26.2305 14.2192 25.8652 14.3438 25.5 14.3438C25.1348 14.3438 24.7695 14.2192 24.4043 13.9702C24.0391 13.7212 23.7651 13.4639 23.5825 13.1982C23.3999 12.9326 23.1592 12.5591 22.8604 12.0776C22.5615 11.5962 22.3789 11.2891 22.3125 11.1562C21.2832 9.86133 20.0381 8.74072 18.5771 7.79443C17.1162 6.84814 15.7051 6.375 14.3438 6.375C12.1523 6.375 10.2764 7.15527 8.71582 8.71582C7.15527 10.2764 6.375 12.1523 6.375 14.3438C6.20898 16.3691 6.74023 18.8594 7.96875 21.8145C9.19727 24.7695 10.791 27.6914 12.75 30.5801C13.3477 31.4766 14.0864 32.6221 14.9663 34.0166C15.8462 35.4111 16.5601 36.5317 17.1079 37.3784C17.6558 38.2251 18.3115 39.1631 19.0752 40.1924C19.8389 41.2217 20.5278 42.0186 21.1421 42.583C21.7563 43.1475 22.4453 43.6289 23.209 44.0273C23.9727 44.4258 24.7363 44.625 25.5 44.625C26.2637 44.625 27.0273 44.4341 27.791 44.0522C28.5547 43.6704 29.2354 43.1973 29.833 42.6328C30.4307 42.0684 31.1113 41.2715 31.875 40.2422C32.6387 39.2129 33.2944 38.2749 33.8423 37.4282C34.3901 36.5815 35.1123 35.4609 36.0088 34.0664L38.25 30.5801C40.209 27.6914 41.8027 24.7695 43.0312 21.8145C44.2598 18.8594 44.791 16.3691 44.625 14.3438C44.625 12.1523 43.8447 10.2764 42.2842 8.71582C40.7236 7.15527 38.8477 6.375 36.6562 6.375Z" fill="#0F5499"/>
</svg>
