<svg width="55" height="56" viewBox="0 0 55 56" fill="none" xmlns="http://www.w3.org/2000/svg">
<path d="M2.74946 30.2511H5.49951V49.5014C5.49951 52.5347 7.9663 55.0015 10.9996 55.0015H44.0002C47.0335 55.0015 49.5002 52.5347 49.5002 49.5014V30.2511H52.2503C52.7941 30.251 53.3257 30.0896 53.7778 29.7874C54.23 29.4852 54.5824 29.0558 54.7904 28.5533C54.9985 28.0509 55.053 27.4981 54.9469 26.9647C54.8409 26.4313 54.5791 25.9413 54.1946 25.5567L29.4442 0.806317C29.189 0.550712 28.8859 0.347929 28.5523 0.209572C28.2187 0.0712154 27.8611 0 27.4999 0C27.1387 0 26.7811 0.0712154 26.4475 0.209572C26.1138 0.347929 25.8108 0.550712 25.5556 0.806317L0.805178 25.5567C0.420695 25.9413 0.158873 26.4313 0.0528105 26.9647C-0.0532521 27.4981 0.00120714 28.0509 0.209303 28.5533C0.417399 29.0558 0.769789 29.4852 1.22192 29.7874C1.67406 30.0896 2.20564 30.251 2.74946 30.2511ZM21.9998 49.5014V35.7512H33V49.5014H21.9998ZM27.4999 6.63917L44.0002 23.1394V35.7512L44.0029 49.5014H38.5001V35.7512C38.5001 32.7179 36.0333 30.2511 33 30.2511H21.9998C18.9665 30.2511 16.4997 32.7179 16.4997 35.7512V49.5014H10.9996V23.1394L27.4999 6.63917Z" fill="#0F5499"/>
</svg>
