<svg width="49" height="50" viewBox="0 0 49 50" fill="none" xmlns="http://www.w3.org/2000/svg">
<path d="M38.625 49.8252L42.6751 45.7752L36.6 19.4501L47.7376 8.31259C48.5432 7.507 48.9958 6.41437 48.9958 5.27508C48.9957 4.1358 48.5432 3.04317 47.7376 2.23757C46.932 1.43197 45.8393 0.979393 44.7001 0.979393C43.5608 0.979392 42.4681 1.43197 41.6625 2.23757L30.525 13.3751L4.19991 7.30009L0.149897 11.3501L21.4125 22.4876L10.2749 33.6252L3.18741 32.6127L0.149899 35.6502L9.26243 40.7127L14.325 49.8252L17.3625 46.7877L16.35 39.7002L27.4875 28.5627L38.625 49.8252Z" fill="#0F5499"/>
</svg>
